# xmcd
#
# Track frame offsets: 
#        150
#        18575
#        37366
#        54821
#        75596
#        94140
#        113612
#        131151
#        149301
#        165962
#        186071
#        205511
#        220213
#        242370
#        277395
#        282288
#        300262
#
# Disc length: 4147 seconds
#
# Revision: 0
# Processed by: cddbd v1.5.2PL0 Copyright (c) Steve Scherf et al.
# Submitted via: ExactAudioCopy v0.95b3
#
DISCID=e8103111
DTITLE=Soul Purpose - Writings On The Wall
DYEAR=1999
DGENRE=funk
TTITLE0=Make It Come Around
TTITLE1=I Forget
TTITLE2=I Won't Let Love Slip Away
TTITLE3=Acapulco Blues
TTITLE4=My Head Don't Feel So Right
TTITLE5=Take Me Back
TTITLE6=Ends With A Smile
TTITLE7=Blindside
TTITLE8=Socialcide
TTITLE9=Katie's Drowning
TTITLE10=Listen To The Words
TTITLE11=Writing's On The Wall
TTITLE12=The Separation
TTITLE13=The Trance
TTITLE14=Zephyr - Thunder and Rain
TTITLE15=After The Storm
TTITLE16=Unknown
EXTD=
EXTT0=
EXTT1=
EXTT2=
EXTT3=
EXTT4=
EXTT5=
EXTT6=
EXTT7=
EXTT8=
EXTT9=
EXTT10=
EXTT11=
EXTT12=
EXTT13=
EXTT14=
EXTT15=
EXTT16=
PLAYORDER=
